<?xml version="1.0" standalone="no"?>
<!DOCTYPE svg PUBLIC "-//W3C//DTD SVG 1.1//EN" "http://www.w3.org/Graphics/SVG/1.1/DTD/svg11.dtd">
<svg xmlns="http://www.w3.org/2000/svg" width="965" height="524" viewBox="0 0 965 524" fill="none">
<path d="M235.052 0.52001C235.052 0.343578 235.052 0.167146 235.124 0H239.964C239.966 0.189694 239.981 0.379015 240.009 0.56644C238.336 2.46076 236.689 2.50719 235.052 0.52001Z" fill="white"/>
<path d="M235.052 0.520264H240.009C244.261 2.54459 245.69 5.16321 244.993 9.90831C240.751 38.9732 236.445 68.0287 232.247 97.0936C227.477 130.176 222.758 163.262 218.09 196.351C216.01 211.097 214.047 225.861 212.012 240.616C211.387 245.167 209.352 247.692 205.788 248.398C204.192 248.768 202.522 248.576 201.045 247.853C199.569 247.131 198.372 245.92 197.647 244.414C195.919 241.025 194.363 237.534 192.771 234.079C179.274 204.779 165.784 175.485 152.299 146.197C134.388 107.271 116.465 68.3414 98.5296 29.4087C98.1739 28.665 97.8568 27.9025 97.5798 27.1244C95.9606 22.305 98.3849 17.6527 103.27 16.7613C107.729 15.9349 112.261 15.5077 116.757 14.9505C127.962 13.5453 139.17 12.1586 150.381 10.7905C162.792 9.26758 175.2 7.74469 187.605 6.22181C200.415 4.6432 213.224 3.0615 226.033 1.47671C229.036 1.11456 232.048 0.835984 235.052 0.520264Z" fill="white"/>
<path d="M206.521 318.376C206.564 317.098 206.837 315.839 207.326 314.662L243.012 212.369C251.455 188.108 259.916 163.844 268.395 139.576C268.902 138.109 269.517 136.679 269.924 135.194C271.435 129.761 277.242 129.195 280.589 132.166C284.09 135.277 287.826 138.072 291.508 141.016L361.913 197.79C362.863 198.551 363.84 199.294 364.744 200.121C368.01 203.138 367.937 207.475 364.455 210.27C361.198 212.879 357.824 215.349 354.504 217.866C308.822 252.474 263.14 287.074 217.837 322.221C216.995 322.945 216.087 323.582 215.124 324.124C211.053 326.121 206.593 323.205 206.521 318.376Z" fill="white"/>
<path d="M348.362 359.15C348.416 361.936 347.123 363.672 344.346 364.397C341.568 365.121 338.647 365.715 335.788 366.347C291.653 376.153 247.526 385.959 203.509 396.303C202.921 396.442 202.333 396.591 201.745 396.702C199.311 397.148 197.384 396.294 196.317 394.325C195.799 393.368 195.599 392.262 195.75 391.178C195.9 390.093 196.391 389.089 197.149 388.317C198.696 386.544 200.297 384.826 201.907 383.108C215.344 368.801 228.777 354.495 242.207 340.188C260.806 320.378 279.392 300.535 297.967 280.656C298.736 279.83 299.487 278.985 300.31 278.224C303.069 275.679 306.307 276.106 308.207 279.403C309.745 282.068 311.074 284.872 312.477 287.621L346.996 355.278C347.656 356.578 348.398 357.813 348.362 359.15Z" fill="white"/>
<path d="M295.38 401.494C294.367 410.381 293.371 419.138 292.367 427.839L288.378 462.336C288.08 464.908 287.872 467.489 287.473 470.034C286.831 474.147 284.805 475.354 281.042 473.813C273.09 470.544 265.184 467.174 257.251 463.868C230.176 452.576 203.12 441.257 175.927 430.29C174.975 429.945 174.047 429.533 173.15 429.055C172.463 428.708 171.902 428.146 171.546 427.45C171.19 426.754 171.058 425.96 171.169 425.183C171.216 424.396 171.511 423.646 172.008 423.045C172.506 422.444 173.179 422.024 173.928 421.849C176.371 421.227 178.831 420.688 181.301 420.159L288.722 397.344C289.406 397.173 290.101 397.052 290.802 396.981C293.86 396.777 295.552 398.523 295.38 401.494Z" fill="white"/>
<path d="M225.445 471.018C225.445 472.466 224.685 473.571 223.998 474.732L203.653 508.523C201.211 512.572 198.787 516.621 196.335 520.66C195.941 521.382 195.468 522.055 194.924 522.666C193.64 524.003 192.21 524.031 190.962 522.666C190.099 521.653 189.307 520.58 188.592 519.453C171.043 493.926 153.484 468.38 135.673 443.076C135.167 442.43 134.73 441.729 134.37 440.987C134.014 440.294 133.874 439.505 133.969 438.728C134.065 437.95 134.391 437.222 134.904 436.641C135.962 435.443 137.256 435.713 138.522 436.186L152.173 441.247L218.435 465.79C220.045 466.384 221.655 466.987 223.238 467.647C223.908 467.894 224.483 468.354 224.881 468.96C225.278 469.567 225.475 470.288 225.445 471.018V471.018Z" fill="white"/>
<path d="M75.2454 418.97C75.2454 418.515 75.2454 418.097 75.2454 417.688C75.1911 416.128 75.5711 414.782 77.1089 414.123C78.6467 413.463 79.5965 414.466 80.483 415.497C85.7538 421.626 91.0156 427.764 96.2683 433.911C105.712 444.961 115.147 456.017 124.573 467.08C127.16 470.117 129.766 473.144 132.308 476.217C134.678 479.077 134.424 480.777 131.204 482.652C120.068 489.153 108.887 495.551 97.7337 501.995C95.1014 503.509 92.469 505.05 89.8185 506.554C86.5167 508.412 85.006 507.632 84.5628 503.769C83.6582 496.061 82.8983 488.345 82.0751 480.628C81.1705 472.197 80.3202 463.765 79.3613 455.333C78.2487 445.258 77.0817 435.192 75.9419 425.126C75.7248 423.046 75.4806 420.985 75.2454 418.97Z" fill="white"/>
<path d="M56.828 459.123C46.7688 458.37 36.6826 458.621 26.6144 457.934C23.2854 457.702 22.7065 456.81 24.1448 453.616C29.1744 442.473 34.2492 431.274 39.2878 420.094C42.9062 412.108 46.4341 404.104 50.0344 396.118C50.6948 394.641 51.2104 392.691 53.2277 392.905C55.2449 393.118 55.1725 395.236 55.4439 396.814C58.7367 415.968 62.0173 435.125 65.286 454.285C65.3674 454.795 65.5031 455.306 65.5483 455.817C65.7021 457.953 64.9513 458.965 62.8345 459.095C60.7177 459.225 58.8452 459.123 56.828 459.123Z" fill="white"/>
<path d="M40.8527 346.438C40.717 346.986 40.5451 347.794 40.3371 348.592C36.7187 362.373 33.0671 376.156 29.3824 389.942C29.242 390.548 29.0544 391.141 28.8215 391.716C28.7441 391.964 28.6169 392.192 28.4481 392.386C28.2792 392.58 28.0725 392.736 27.8414 392.843C27.6103 392.949 27.3599 393.005 27.1064 393.006C26.8529 393.007 26.6021 392.954 26.3701 392.849C25.8023 392.633 25.2493 392.379 24.7146 392.087C17.1703 388.132 9.63197 384.167 2.09968 380.192C-0.568887 378.781 -0.668392 378.01 1.65643 375.986C8.51329 370.033 15.4154 364.137 22.2903 358.213C26.9942 354.151 31.6951 350.078 36.393 345.992C36.9732 345.429 37.61 344.931 38.2927 344.507C39.7943 343.689 40.8889 344.451 40.8527 346.438Z" fill="white"/>
<path d="M27.5641 289.153C27.4918 286.368 27.926 285.978 30.5312 286.786C39.0254 289.413 47.5015 292.106 55.9776 294.781C56.4683 294.897 56.9383 295.091 57.3707 295.356C58.1034 295.886 58.1577 296.601 57.3707 297.102C56.759 297.456 56.1053 297.728 55.4258 297.91C47.8452 300.417 40.2617 302.915 32.6751 305.404C32.3856 305.497 32.0962 305.599 31.7705 305.664C29.7894 306.156 29.3824 305.989 29.0567 303.964C28.6858 301.727 28.532 299.442 28.3059 297.186C28.0797 294.511 27.8265 291.828 27.5641 289.153Z" fill="white"/>
<path d="M41.124 314.16C41.7392 314.16 42.3905 314.105 42.6799 314.81C42.9694 315.516 42.499 315.99 42.0648 316.417C39.1882 319.166 36.3055 321.905 33.4169 324.635C30.0156 327.857 26.6233 331.135 23.1677 334.264C21.2771 336.001 20.7163 335.917 19.4408 333.782C16.92 329.547 14.4414 325.288 12.005 321.004C10.9014 319.045 11.1909 318.432 13.3167 318.116C22.1817 316.816 31.0558 315.572 39.9209 314.309C40.3189 314.244 40.6989 314.207 41.124 314.16Z" fill="white"/>
<path d="M81.4513 263.069C81.6627 263.027 81.8818 263.064 82.0691 263.173C82.2565 263.282 82.3999 263.456 82.4735 263.663C82.781 264.304 83.0615 264.973 83.3238 265.641C85.537 271.299 87.7443 276.958 89.9455 282.616C90.1716 283.192 90.3978 283.767 90.5877 284.352C90.6789 284.538 90.7105 284.748 90.678 284.953C90.6455 285.159 90.5506 285.348 90.4068 285.494C90.2463 285.622 90.0513 285.694 89.8486 285.703C89.646 285.711 89.4459 285.655 89.276 285.541C88.8418 285.299 88.3714 285.039 87.9825 284.761C83.1791 281.529 78.3756 278.261 73.6084 275.048C71.3017 273.469 71.2745 273.088 73.2013 271.083C75.3905 268.798 77.6158 266.56 79.8411 264.313C80.256 263.754 80.8132 263.324 81.4513 263.069V263.069Z" fill="white"/>
<path d="M71.4551 285.839C70.8943 285.765 70.3968 285.718 69.8992 285.616C64.2907 284.455 58.6731 283.295 53.0646 282.087C50.6584 281.567 50.4775 281.252 51.373 279.014C52.6666 275.773 54.0145 272.514 55.4347 269.356C56.2126 267.601 56.7283 267.499 58.0671 268.901C62.7619 273.851 67.4025 278.865 72.0612 283.87C72.3959 284.232 72.7759 284.632 72.6402 285.207C72.5045 285.783 71.817 285.709 71.4551 285.839Z" fill="white"/>
<path d="M125.432 312.433C126.572 307.242 127.784 301.717 129.051 296.192C129.313 295.003 129.892 294.335 131.186 294.938C134.108 296.313 137.057 297.613 139.942 299.061C141.299 299.73 141.362 300.268 140.214 301.373C135.89 305.515 131.511 309.601 127.142 313.705C126.78 314.039 126.355 314.411 125.812 314.132C125.27 313.854 125.369 313.269 125.432 312.433Z" fill="white"/>
<path d="M108.354 273.005C107.821 278.762 107.296 284.529 106.744 290.286C106.681 290.964 106.744 291.874 105.839 291.967C105.125 292.032 104.881 291.289 104.6 290.769C101.986 285.996 99.4077 281.195 96.8025 276.413C96.124 275.15 96.2597 274.296 97.7071 273.841C100.602 272.959 103.46 271.984 106.373 271.111C108.11 270.628 108.544 271.092 108.354 273.005Z" fill="white"/>
<path d="M116.468 302.312C116.173 302.059 115.938 301.74 115.781 301.38C115.624 301.019 115.55 300.627 115.563 300.232C115.048 295.19 114.496 290.157 114.098 285.096C113.872 282.31 114.197 282.106 116.984 282.412C119.77 282.719 122.411 283.007 125.125 283.285C126.283 283.406 126.871 283.954 126.247 285.143C123.243 290.77 120.195 296.369 117.201 301.969C117.02 302.089 116.766 302.145 116.468 302.312Z" fill="white"/>
<path d="M140.105 324.709C140.453 321.726 141.059 318.78 141.914 315.906C141.967 315.65 142.112 315.424 142.319 315.272C142.527 315.121 142.783 315.056 143.036 315.089C144.605 315.397 146.085 316.07 147.36 317.058C147.894 317.448 147.613 318.033 147.252 318.386C145.095 320.748 142.699 322.868 140.105 324.709V324.709Z" fill="white"/>
<path d="M527.499 450.432C528.802 456.326 530.55 462.107 532.728 467.722C533.985 470.963 535.686 473.99 537.124 477.147C536.669 477.116 536.213 477.191 535.79 477.367C535.367 477.542 534.989 477.813 534.682 478.159C528.666 483.434 521.891 487.538 514.989 491.41C503.835 497.669 492.645 503.844 480.469 507.846C472.509 510.544 464.215 512.06 455.837 512.35C447.488 512.554 439.319 511.291 431.847 507.113C421.091 501.095 414.814 491.577 411.946 479.552C409.829 470.796 409.929 461.909 410.987 453.032C413.638 430.745 419.029 409.128 424.556 387.501C429.622 367.676 434.552 347.832 438.179 327.663C442.44 303.956 437.058 282.738 423.407 263.451C422.969 262.757 422.479 262.098 421.942 261.482C419.309 258.817 418.812 255.706 419.536 252.066C419.897 250.283 420.522 249.373 422.249 248.918C427.82 247.464 433.46 246.305 439.147 245.445C453.011 243.392 466.97 242.084 480.967 241.527C492.953 240.997 504.939 240.765 516.925 240.422C520.272 240.32 522.126 241.592 523.528 244.545C526.441 250.729 527.499 257.303 528.133 264.045C529.77 281.391 526.703 298.282 523.528 315.117C519.448 336.781 513.659 358.018 508.43 379.394C504.459 395.654 500.678 411.96 498.154 428.545C496.942 436.549 496.209 444.563 497.25 452.688C497.453 454.96 497.993 457.186 498.851 459.29C500.018 461.853 501.293 462.457 503.953 461.723C505.311 461.332 506.649 460.867 507.96 460.33C513.695 458.055 519.286 455.409 524.84 452.716C525.871 452.224 527.147 451.862 527.499 450.432Z" fill="white"/>
<path d="M449.831 143.588C449.324 128.424 455.973 116.659 466.665 106.992C477.19 97.2001 491.045 92.0502 505.237 92.655C510.797 92.7034 516.312 93.682 521.565 95.5522C536.6 101.235 545.013 112.462 547.392 128.591C549.943 145.78 543.918 159.588 531.516 170.907C523.583 178.15 514.6 183.22 504.134 185.31C494.893 187.264 485.316 186.7 476.353 183.675C462.233 178.837 453.738 168.669 450.654 153.775C450.023 150.42 449.747 147.004 449.831 143.588V143.588Z" fill="white"/>
<path d="M912.361 244.777C911.655 244.777 910.95 244.777 910.244 244.777C908.978 244.777 908.317 244.331 908.607 242.92C908.733 242.316 908.806 241.694 908.923 241.063C912.035 225.332 914.858 209.565 916.947 193.704C918.314 182.501 918.538 171.182 917.617 159.932C917.381 156.635 916.938 153.348 916.477 150.07C915.988 146.616 915.825 146.532 912.46 146.504C904.687 146.495 896.921 147.003 889.212 148.027C869.898 150.538 850.886 155.077 832.476 161.575C829.391 162.652 829.337 162.662 829.418 165.921C829.563 171.929 829.943 177.928 829.934 183.926C829.79 203.193 828.379 222.428 825.709 241.499C825.284 244.693 825.148 244.805 821.856 244.814H791.597C788.123 244.814 788.087 244.814 787.544 248.24C786.025 257.805 786.269 267.425 786.748 277.027C786.825 278.786 786.988 280.54 787.237 282.283C787.526 284.279 787.942 284.558 789.824 284.363C790.222 284.363 790.62 284.205 791.018 284.149C799.006 282.988 807.029 282.19 815.062 281.493C819.893 281.075 819.956 281.187 819.07 285.941C817.26 295.803 815.406 305.665 813.416 315.498C808.178 341.443 802.108 367.202 797.052 393.193C793.677 410.549 790.294 427.904 788.91 445.594C788.868 446.309 788.639 446.999 788.245 447.591C787.852 448.183 787.309 448.654 786.676 448.955C780.597 452.67 774.545 456.384 768.195 459.569C766.756 460.315 765.276 460.976 763.762 461.547C760.587 462.689 758.271 461.649 756.833 458.52C756.207 457.103 755.795 455.597 755.612 454.053C755.135 450.36 754.978 446.631 755.142 442.91C755.838 425.945 757.53 409.072 759.665 392.237C763.111 365.447 767.399 338.797 772.202 312.239C778.146 279.376 784.387 246.56 790.385 213.706C793.876 194.577 796.988 175.383 799.847 156.134C802.117 140.784 804.153 125.397 805.573 109.946C806.551 101.099 806.992 92.1981 806.894 83.2951C806.744 76.8608 805.52 70.5006 803.275 64.4911C803.08 63.6872 802.603 62.9853 801.936 62.5194C801.268 62.0535 800.457 61.8563 799.657 61.9654C795.333 62.1697 790.982 62.0304 786.658 62.3461C772.369 63.3652 758.186 65.5827 744.25 68.9762C735.512 71.1027 726.9 73.6192 718.388 76.5907C715.674 77.5193 715.674 77.5193 716.027 80.5929C716.398 83.8894 716.714 87.1859 717.157 90.4638C718.39 98.6512 718.829 106.944 718.469 115.22C718.143 120.692 717.824 126.165 717.51 131.637C716.47 150.256 714.272 168.781 711.766 187.195C708.772 209.23 705.099 231.164 701.065 253.023C700.377 256.737 700.368 256.737 697.22 254.759C687.485 248.677 676.872 244.217 665.776 241.545C656.437 239.345 646.919 238.042 637.345 237.655C629.39 237.154 621.406 237.801 613.626 239.577C598.248 243.291 585.385 251.546 574.041 262.504C553.38 282.478 539.956 306.872 532.276 334.785C525.943 357.879 523.763 381.521 523.365 405.358C523.239 414.186 523.62 423.013 524.505 431.795C525.04 438.088 526.041 444.331 527.499 450.469C527.734 452.326 526.504 454.053 527.183 456.115C529.1 461.9 530.801 467.75 533.515 473.219C534.218 474.944 535.503 476.351 537.133 477.184C539.51 481.873 542.492 486.212 545.998 490.082C554.339 499.749 564.235 506.973 576.538 510.335C587.547 513.353 598.51 512.814 609.402 509.75C630.417 503.854 649.701 492.751 665.559 477.416C666.627 476.395 667.522 475.114 668.861 474.556C669.765 475.151 669.612 475.959 669.765 476.636C670.557 480.803 671.769 484.874 673.384 488.782C677.835 499.08 685.144 506.203 695.628 509.731C701.7 511.708 708.06 512.59 714.426 512.341C722.7 512.059 730.888 510.519 738.723 507.772C753.812 502.609 767.327 494.456 780.217 485.087C782.849 483.174 785.418 481.159 787.997 479.181C789.055 478.373 789.806 478.373 790.231 479.831C790.484 480.759 790.801 481.595 791.136 482.477C793.201 488.56 796.585 494.081 801.032 498.625C810.982 508.914 823.384 512.656 837.125 512.331C849.551 511.955 861.821 509.388 873.4 504.745C894.595 496.49 913.121 483.74 930.57 469.152C932.307 467.694 932.325 467.62 931.249 465.549C928.626 460.525 925.966 455.539 923.306 450.543C921.769 447.637 921.76 447.646 918.675 449.085C911.7 452.335 904.699 455.539 897.553 458.371C893.547 460.08 889.403 461.425 885.169 462.392C880.836 463.274 878.475 461.965 876.928 457.749C875.985 455.009 875.481 452.13 875.435 449.224C875.237 442.602 875.497 435.974 876.213 429.39C877.923 413.121 880.365 396.973 883.034 380.852C887.168 355.855 891.872 330.969 896.684 306.101C898.331 297.576 900.019 289.058 901.75 280.546C902.293 277.89 902.446 277.677 904.464 277.668C913.835 277.668 923.216 277.426 932.588 278.095C939.318 278.565 946.048 279.088 952.778 279.664C953.516 279.82 954.284 279.692 954.935 279.303C955.586 278.914 956.074 278.292 956.306 277.556C959.747 269.602 962.381 261.307 964.167 252.8C964.484 251.193 964.167 249.457 964.999 247.953V244.777H912.361ZM695.257 286.443C692.845 299.653 690.472 312.88 688.138 326.121C682.547 357.693 677.011 389.265 672.199 420.921C671.15 427.867 670.055 434.85 669.53 441.842C669.511 442.667 669.315 443.476 668.957 444.214C668.599 444.953 668.088 445.601 667.459 446.114C657.879 453.914 647.368 459.532 634.984 460.73C633.181 460.924 631.365 460.961 629.556 460.841C626.929 460.656 624.378 459.855 622.101 458.497C619.823 457.14 617.88 455.264 616.421 453.013C613.147 448.324 611.898 442.891 610.994 437.357C609.895 430.202 609.252 422.981 609.067 415.74C608.922 410.874 608.741 406.017 608.633 402.86C608.269 370.102 614.403 337.611 626.661 307.364C629.891 299.304 633.772 291.578 639.19 284.771C640.603 283.016 642.136 281.365 643.776 279.831C649.756 274.167 656.857 272.449 664.781 273.433C675.03 274.715 684.547 278.253 693.728 282.951C695.266 283.778 695.628 284.725 695.293 286.443H695.257Z" fill="white"/>
</svg>